<mxfile host="app.diagrams.net" agent="Mozilla/5.0 (Windows NT 10.0; Win64; x64) AppleWebKit/537.36 (KHTML, like Gecko) Chrome/128.0.0.0 Safari/537.36 Edg/128.0.0.0" version="24.7.16">
  <diagram name="Page-1" id="RIvAk225tIGYsHkw-oB1">
    <mxGraphModel dx="1852" dy="567" grid="1" gridSize="10" guides="1" tooltips="1" connect="1" arrows="1" fold="1" page="1" pageScale="1" pageWidth="850" pageHeight="1100" math="0" shadow="0">
      <root>
        <mxCell id="0" />
        <mxCell id="1" parent="0" />
        <mxCell id="K3xgULdWqoKA-jHC08mt-1" value="Warehouse App" style="swimlane;fontStyle=0;childLayout=stackLayout;horizontal=1;startSize=26;horizontalStack=0;resizeParent=1;resizeParentMax=0;resizeLast=0;collapsible=1;marginBottom=0;align=center;fontSize=14;" vertex="1" parent="1">
          <mxGeometry x="-40" y="50" width="160" height="56" as="geometry" />
        </mxCell>
        <mxCell id="K3xgULdWqoKA-jHC08mt-2" value="WinForms Desktop UI" style="text;strokeColor=none;fillColor=none;spacingLeft=4;spacingRight=4;overflow=hidden;rotatable=0;points=[[0,0.5],[1,0.5]];portConstraint=eastwest;fontSize=12;whiteSpace=wrap;html=1;" vertex="1" parent="K3xgULdWqoKA-jHC08mt-1">
          <mxGeometry y="26" width="160" height="30" as="geometry" />
        </mxCell>
        <mxCell id="K3xgULdWqoKA-jHC08mt-5" value="API Getaway" style="swimlane;fontStyle=0;childLayout=stackLayout;horizontal=1;startSize=26;horizontalStack=0;resizeParent=1;resizeParentMax=0;resizeLast=0;collapsible=1;marginBottom=0;align=center;fontSize=14;" vertex="1" parent="1">
          <mxGeometry x="190" y="210" width="160" height="56" as="geometry" />
        </mxCell>
        <mxCell id="K3xgULdWqoKA-jHC08mt-11" value="&lt;div&gt;&lt;br&gt;&lt;/div&gt;&lt;div&gt;&lt;br&gt;&lt;/div&gt;" style="html=1;verticalAlign=bottom;endArrow=block;curved=0;rounded=0;elbow=vertical;exitX=0.998;exitY=-0.013;exitDx=0;exitDy=0;exitPerimeter=0;entryX=0;entryY=0;entryDx=0;entryDy=0;" edge="1" parent="1" source="K3xgULdWqoKA-jHC08mt-2" target="K3xgULdWqoKA-jHC08mt-5">
          <mxGeometry width="80" relative="1" as="geometry">
            <mxPoint x="380" y="290" as="sourcePoint" />
            <mxPoint x="280" y="210" as="targetPoint" />
            <Array as="points" />
          </mxGeometry>
        </mxCell>
        <mxCell id="K3xgULdWqoKA-jHC08mt-16" value="Authentication service" style="swimlane;fontStyle=0;childLayout=stackLayout;horizontal=1;startSize=26;horizontalStack=0;resizeParent=1;resizeParentMax=0;resizeLast=0;collapsible=1;marginBottom=0;align=center;fontSize=14;" vertex="1" parent="1">
          <mxGeometry x="560" y="50" width="160" height="116" as="geometry" />
        </mxCell>
        <mxCell id="K3xgULdWqoKA-jHC08mt-51" value="REST API" style="text;strokeColor=none;fillColor=none;spacingLeft=4;spacingRight=4;overflow=hidden;rotatable=0;points=[[0,0.5],[1,0.5]];portConstraint=eastwest;fontSize=12;whiteSpace=wrap;html=1;" vertex="1" parent="K3xgULdWqoKA-jHC08mt-16">
          <mxGeometry y="26" width="160" height="30" as="geometry" />
        </mxCell>
        <mxCell id="K3xgULdWqoKA-jHC08mt-18" value="BL" style="text;strokeColor=none;fillColor=none;spacingLeft=4;spacingRight=4;overflow=hidden;rotatable=0;points=[[0,0.5],[1,0.5]];portConstraint=eastwest;fontSize=12;whiteSpace=wrap;html=1;" vertex="1" parent="K3xgULdWqoKA-jHC08mt-16">
          <mxGeometry y="56" width="160" height="30" as="geometry" />
        </mxCell>
        <mxCell id="K3xgULdWqoKA-jHC08mt-19" value="DAL" style="text;strokeColor=none;fillColor=none;spacingLeft=4;spacingRight=4;overflow=hidden;rotatable=0;points=[[0,0.5],[1,0.5]];portConstraint=eastwest;fontSize=12;whiteSpace=wrap;html=1;" vertex="1" parent="K3xgULdWqoKA-jHC08mt-16">
          <mxGeometry y="86" width="160" height="30" as="geometry" />
        </mxCell>
        <mxCell id="K3xgULdWqoKA-jHC08mt-20" value="DB" style="shape=datastore;whiteSpace=wrap;html=1;" vertex="1" parent="1">
          <mxGeometry x="790" y="70" width="60" height="60" as="geometry" />
        </mxCell>
        <mxCell id="K3xgULdWqoKA-jHC08mt-21" value="" style="html=1;verticalAlign=bottom;endArrow=block;curved=0;rounded=0;elbow=vertical;entryX=0;entryY=0.5;entryDx=0;entryDy=0;exitX=1;exitY=0;exitDx=0;exitDy=0;" edge="1" parent="1" source="K3xgULdWqoKA-jHC08mt-5" target="K3xgULdWqoKA-jHC08mt-18">
          <mxGeometry width="80" relative="1" as="geometry">
            <mxPoint x="380" y="200" as="sourcePoint" />
            <mxPoint x="460" y="290" as="targetPoint" />
            <Array as="points" />
          </mxGeometry>
        </mxCell>
        <mxCell id="K3xgULdWqoKA-jHC08mt-23" value="" style="html=1;verticalAlign=bottom;endArrow=block;curved=0;rounded=0;elbow=vertical;exitX=1.023;exitY=0.76;exitDx=0;exitDy=0;exitPerimeter=0;entryX=0;entryY=0.5;entryDx=0;entryDy=0;" edge="1" parent="1" source="K3xgULdWqoKA-jHC08mt-18" target="K3xgULdWqoKA-jHC08mt-20">
          <mxGeometry width="80" relative="1" as="geometry">
            <mxPoint x="730" y="160" as="sourcePoint" />
            <mxPoint x="810" y="160" as="targetPoint" />
          </mxGeometry>
        </mxCell>
        <mxCell id="K3xgULdWqoKA-jHC08mt-28" value="Storage service" style="swimlane;fontStyle=0;childLayout=stackLayout;horizontal=1;startSize=26;horizontalStack=0;resizeParent=1;resizeParentMax=0;resizeLast=0;collapsible=1;marginBottom=0;align=center;fontSize=14;" vertex="1" parent="1">
          <mxGeometry x="560" y="180" width="160" height="116" as="geometry" />
        </mxCell>
        <mxCell id="K3xgULdWqoKA-jHC08mt-49" value="REST API" style="text;strokeColor=none;fillColor=none;spacingLeft=4;spacingRight=4;overflow=hidden;rotatable=0;points=[[0,0.5],[1,0.5]];portConstraint=eastwest;fontSize=12;whiteSpace=wrap;html=1;" vertex="1" parent="K3xgULdWqoKA-jHC08mt-28">
          <mxGeometry y="26" width="160" height="30" as="geometry" />
        </mxCell>
        <mxCell id="K3xgULdWqoKA-jHC08mt-29" value="BL" style="text;strokeColor=none;fillColor=none;spacingLeft=4;spacingRight=4;overflow=hidden;rotatable=0;points=[[0,0.5],[1,0.5]];portConstraint=eastwest;fontSize=12;whiteSpace=wrap;html=1;" vertex="1" parent="K3xgULdWqoKA-jHC08mt-28">
          <mxGeometry y="56" width="160" height="30" as="geometry" />
        </mxCell>
        <mxCell id="K3xgULdWqoKA-jHC08mt-30" value="DAL" style="text;strokeColor=none;fillColor=none;spacingLeft=4;spacingRight=4;overflow=hidden;rotatable=0;points=[[0,0.5],[1,0.5]];portConstraint=eastwest;fontSize=12;whiteSpace=wrap;html=1;" vertex="1" parent="K3xgULdWqoKA-jHC08mt-28">
          <mxGeometry y="86" width="160" height="30" as="geometry" />
        </mxCell>
        <mxCell id="K3xgULdWqoKA-jHC08mt-33" value="DB" style="shape=datastore;whiteSpace=wrap;html=1;" vertex="1" parent="1">
          <mxGeometry x="790" y="193" width="60" height="60" as="geometry" />
        </mxCell>
        <mxCell id="K3xgULdWqoKA-jHC08mt-38" value="Delivery service" style="swimlane;fontStyle=0;childLayout=stackLayout;horizontal=1;startSize=26;horizontalStack=0;resizeParent=1;resizeParentMax=0;resizeLast=0;collapsible=1;marginBottom=0;align=center;fontSize=14;" vertex="1" parent="1">
          <mxGeometry x="560" y="310" width="160" height="116" as="geometry" />
        </mxCell>
        <mxCell id="K3xgULdWqoKA-jHC08mt-48" value="REST API" style="text;strokeColor=none;fillColor=none;spacingLeft=4;spacingRight=4;overflow=hidden;rotatable=0;points=[[0,0.5],[1,0.5]];portConstraint=eastwest;fontSize=12;whiteSpace=wrap;html=1;" vertex="1" parent="K3xgULdWqoKA-jHC08mt-38">
          <mxGeometry y="26" width="160" height="30" as="geometry" />
        </mxCell>
        <mxCell id="K3xgULdWqoKA-jHC08mt-39" value="BL" style="text;strokeColor=none;fillColor=none;spacingLeft=4;spacingRight=4;overflow=hidden;rotatable=0;points=[[0,0.5],[1,0.5]];portConstraint=eastwest;fontSize=12;whiteSpace=wrap;html=1;" vertex="1" parent="K3xgULdWqoKA-jHC08mt-38">
          <mxGeometry y="56" width="160" height="30" as="geometry" />
        </mxCell>
        <mxCell id="K3xgULdWqoKA-jHC08mt-40" value="DAL" style="text;strokeColor=none;fillColor=none;spacingLeft=4;spacingRight=4;overflow=hidden;rotatable=0;points=[[0,0.5],[1,0.5]];portConstraint=eastwest;fontSize=12;whiteSpace=wrap;html=1;" vertex="1" parent="K3xgULdWqoKA-jHC08mt-38">
          <mxGeometry y="86" width="160" height="30" as="geometry" />
        </mxCell>
        <mxCell id="K3xgULdWqoKA-jHC08mt-42" value="DB" style="shape=datastore;whiteSpace=wrap;html=1;" vertex="1" parent="1">
          <mxGeometry x="790" y="323" width="60" height="60" as="geometry" />
        </mxCell>
        <mxCell id="K3xgULdWqoKA-jHC08mt-44" value="" style="html=1;verticalAlign=bottom;endArrow=block;curved=0;rounded=0;elbow=vertical;entryX=0;entryY=0.7;entryDx=0;entryDy=0;exitX=0.992;exitY=1.04;exitDx=0;exitDy=0;exitPerimeter=0;" edge="1" parent="1" source="K3xgULdWqoKA-jHC08mt-29" target="K3xgULdWqoKA-jHC08mt-33">
          <mxGeometry width="80" relative="1" as="geometry">
            <mxPoint x="380" y="290" as="sourcePoint" />
            <mxPoint x="460" y="290" as="targetPoint" />
          </mxGeometry>
        </mxCell>
        <mxCell id="K3xgULdWqoKA-jHC08mt-45" value="" style="html=1;verticalAlign=bottom;endArrow=block;curved=0;rounded=0;elbow=vertical;entryX=0;entryY=0.617;entryDx=0;entryDy=0;entryPerimeter=0;" edge="1" parent="1" target="K3xgULdWqoKA-jHC08mt-42">
          <mxGeometry width="80" relative="1" as="geometry">
            <mxPoint x="721" y="360" as="sourcePoint" />
            <mxPoint x="460" y="290" as="targetPoint" />
          </mxGeometry>
        </mxCell>
        <mxCell id="K3xgULdWqoKA-jHC08mt-46" value="" style="html=1;verticalAlign=bottom;endArrow=block;curved=0;rounded=0;elbow=vertical;entryX=0.013;entryY=0.093;entryDx=0;entryDy=0;entryPerimeter=0;exitX=1;exitY=0.5;exitDx=0;exitDy=0;" edge="1" parent="1" source="K3xgULdWqoKA-jHC08mt-5" target="K3xgULdWqoKA-jHC08mt-30">
          <mxGeometry width="80" relative="1" as="geometry">
            <mxPoint x="430" y="239" as="sourcePoint" />
            <mxPoint x="490" y="237.5" as="targetPoint" />
          </mxGeometry>
        </mxCell>
        <mxCell id="K3xgULdWqoKA-jHC08mt-47" value="" style="html=1;verticalAlign=bottom;endArrow=block;curved=0;rounded=0;elbow=vertical;entryX=-0.012;entryY=0.84;entryDx=0;entryDy=0;entryPerimeter=0;exitX=1;exitY=1;exitDx=0;exitDy=0;" edge="1" parent="1" source="K3xgULdWqoKA-jHC08mt-5" target="K3xgULdWqoKA-jHC08mt-39">
          <mxGeometry width="80" relative="1" as="geometry">
            <mxPoint x="380" y="290" as="sourcePoint" />
            <mxPoint x="460" y="290" as="targetPoint" />
          </mxGeometry>
        </mxCell>
        <mxCell id="K3xgULdWqoKA-jHC08mt-52" value="Back office" style="swimlane;fontStyle=0;childLayout=stackLayout;horizontal=1;startSize=26;horizontalStack=0;resizeParent=1;resizeParentMax=0;resizeLast=0;collapsible=1;marginBottom=0;align=center;fontSize=14;" vertex="1" parent="1">
          <mxGeometry x="-40" y="137" width="160" height="56" as="geometry" />
        </mxCell>
        <mxCell id="K3xgULdWqoKA-jHC08mt-53" value="Web UI" style="text;strokeColor=none;fillColor=none;spacingLeft=4;spacingRight=4;overflow=hidden;rotatable=0;points=[[0,0.5],[1,0.5]];portConstraint=eastwest;fontSize=12;whiteSpace=wrap;html=1;" vertex="1" parent="K3xgULdWqoKA-jHC08mt-52">
          <mxGeometry y="26" width="160" height="30" as="geometry" />
        </mxCell>
        <mxCell id="K3xgULdWqoKA-jHC08mt-56" value="Online shop" style="swimlane;fontStyle=0;childLayout=stackLayout;horizontal=1;startSize=26;horizontalStack=0;resizeParent=1;resizeParentMax=0;resizeLast=0;collapsible=1;marginBottom=0;align=center;fontSize=14;" vertex="1" parent="1">
          <mxGeometry x="-40" y="220" width="160" height="56" as="geometry" />
        </mxCell>
        <mxCell id="K3xgULdWqoKA-jHC08mt-57" value="Web UI" style="text;strokeColor=none;fillColor=none;spacingLeft=4;spacingRight=4;overflow=hidden;rotatable=0;points=[[0,0.5],[1,0.5]];portConstraint=eastwest;fontSize=12;whiteSpace=wrap;html=1;" vertex="1" parent="K3xgULdWqoKA-jHC08mt-56">
          <mxGeometry y="26" width="160" height="30" as="geometry" />
        </mxCell>
        <mxCell id="K3xgULdWqoKA-jHC08mt-60" value="Curer App" style="swimlane;fontStyle=0;childLayout=stackLayout;horizontal=1;startSize=26;horizontalStack=0;resizeParent=1;resizeParentMax=0;resizeLast=0;collapsible=1;marginBottom=0;align=center;fontSize=14;" vertex="1" parent="1">
          <mxGeometry x="-40" y="310" width="160" height="56" as="geometry" />
        </mxCell>
        <mxCell id="K3xgULdWqoKA-jHC08mt-61" value="UI" style="text;strokeColor=none;fillColor=none;spacingLeft=4;spacingRight=4;overflow=hidden;rotatable=0;points=[[0,0.5],[1,0.5]];portConstraint=eastwest;fontSize=12;whiteSpace=wrap;html=1;" vertex="1" parent="K3xgULdWqoKA-jHC08mt-60">
          <mxGeometry y="26" width="160" height="30" as="geometry" />
        </mxCell>
        <mxCell id="K3xgULdWqoKA-jHC08mt-64" value="Customer App" style="swimlane;fontStyle=0;childLayout=stackLayout;horizontal=1;startSize=26;horizontalStack=0;resizeParent=1;resizeParentMax=0;resizeLast=0;collapsible=1;marginBottom=0;align=center;fontSize=14;" vertex="1" parent="1">
          <mxGeometry x="-40" y="390" width="160" height="56" as="geometry" />
        </mxCell>
        <mxCell id="K3xgULdWqoKA-jHC08mt-65" value="UI" style="text;strokeColor=none;fillColor=none;spacingLeft=4;spacingRight=4;overflow=hidden;rotatable=0;points=[[0,0.5],[1,0.5]];portConstraint=eastwest;fontSize=12;whiteSpace=wrap;html=1;" vertex="1" parent="K3xgULdWqoKA-jHC08mt-64">
          <mxGeometry y="26" width="160" height="30" as="geometry" />
        </mxCell>
        <mxCell id="K3xgULdWqoKA-jHC08mt-68" value="" style="html=1;verticalAlign=bottom;endArrow=block;curved=0;rounded=0;elbow=vertical;exitX=0.985;exitY=0.027;exitDx=0;exitDy=0;exitPerimeter=0;entryX=0;entryY=0.25;entryDx=0;entryDy=0;" edge="1" parent="1" source="K3xgULdWqoKA-jHC08mt-53" target="K3xgULdWqoKA-jHC08mt-5">
          <mxGeometry width="80" relative="1" as="geometry">
            <mxPoint x="380" y="290" as="sourcePoint" />
            <mxPoint x="260" y="230" as="targetPoint" />
          </mxGeometry>
        </mxCell>
        <mxCell id="K3xgULdWqoKA-jHC08mt-69" value="" style="html=1;verticalAlign=bottom;endArrow=block;curved=0;rounded=0;elbow=vertical;exitX=1.002;exitY=-0.053;exitDx=0;exitDy=0;exitPerimeter=0;entryX=0;entryY=0.5;entryDx=0;entryDy=0;" edge="1" parent="1" source="K3xgULdWqoKA-jHC08mt-57" target="K3xgULdWqoKA-jHC08mt-5">
          <mxGeometry width="80" relative="1" as="geometry">
            <mxPoint x="380" y="290" as="sourcePoint" />
            <mxPoint x="460" y="290" as="targetPoint" />
          </mxGeometry>
        </mxCell>
        <mxCell id="K3xgULdWqoKA-jHC08mt-70" value="" style="html=1;verticalAlign=bottom;endArrow=block;curved=0;rounded=0;elbow=vertical;exitX=1.007;exitY=-0.013;exitDx=0;exitDy=0;exitPerimeter=0;entryX=0;entryY=0.75;entryDx=0;entryDy=0;" edge="1" parent="1" source="K3xgULdWqoKA-jHC08mt-61" target="K3xgULdWqoKA-jHC08mt-5">
          <mxGeometry width="80" relative="1" as="geometry">
            <mxPoint x="380" y="290" as="sourcePoint" />
            <mxPoint x="260" y="250" as="targetPoint" />
          </mxGeometry>
        </mxCell>
        <mxCell id="K3xgULdWqoKA-jHC08mt-71" value="" style="html=1;verticalAlign=bottom;endArrow=block;curved=0;rounded=0;elbow=vertical;exitX=1;exitY=0.5;exitDx=0;exitDy=0;entryX=0;entryY=1;entryDx=0;entryDy=0;" edge="1" parent="1" source="K3xgULdWqoKA-jHC08mt-64" target="K3xgULdWqoKA-jHC08mt-5">
          <mxGeometry width="80" relative="1" as="geometry">
            <mxPoint x="380" y="290" as="sourcePoint" />
            <mxPoint x="260" y="270" as="targetPoint" />
          </mxGeometry>
        </mxCell>
        <mxCell id="K3xgULdWqoKA-jHC08mt-72" value="Reporting service" style="swimlane;fontStyle=0;childLayout=stackLayout;horizontal=1;startSize=26;horizontalStack=0;resizeParent=1;resizeParentMax=0;resizeLast=0;collapsible=1;marginBottom=0;align=center;fontSize=14;" vertex="1" parent="1">
          <mxGeometry x="460" y="480" width="160" height="56" as="geometry" />
        </mxCell>
        <mxCell id="K3xgULdWqoKA-jHC08mt-76" value="" style="html=1;verticalAlign=bottom;endArrow=block;curved=0;rounded=0;elbow=vertical;entryX=0;entryY=-0.2;entryDx=0;entryDy=0;entryPerimeter=0;exitX=0.438;exitY=0.007;exitDx=0;exitDy=0;exitPerimeter=0;" edge="1" parent="1" source="K3xgULdWqoKA-jHC08mt-72" target="K3xgULdWqoKA-jHC08mt-40">
          <mxGeometry width="80" relative="1" as="geometry">
            <mxPoint x="480" y="450" as="sourcePoint" />
            <mxPoint x="460" y="290" as="targetPoint" />
          </mxGeometry>
        </mxCell>
        <mxCell id="K3xgULdWqoKA-jHC08mt-77" value="" style="html=1;verticalAlign=bottom;endArrow=block;curved=0;rounded=0;elbow=vertical;entryX=0;entryY=0.5;entryDx=0;entryDy=0;" edge="1" parent="1" target="K3xgULdWqoKA-jHC08mt-30">
          <mxGeometry width="80" relative="1" as="geometry">
            <mxPoint x="508" y="480" as="sourcePoint" />
            <mxPoint x="500" y="282.62" as="targetPoint" />
          </mxGeometry>
        </mxCell>
        <mxCell id="K3xgULdWqoKA-jHC08mt-80" value="private net" style="shape=umlFrame;whiteSpace=wrap;html=1;pointerEvents=0;" vertex="1" parent="1">
          <mxGeometry x="350" y="20" width="530" height="540" as="geometry" />
        </mxCell>
        <mxCell id="K3xgULdWqoKA-jHC08mt-81" value="DB" style="shape=datastore;whiteSpace=wrap;html=1;" vertex="1" parent="1">
          <mxGeometry x="690" y="476" width="60" height="60" as="geometry" />
        </mxCell>
        <mxCell id="K3xgULdWqoKA-jHC08mt-82" value="" style="html=1;verticalAlign=bottom;endArrow=block;curved=0;rounded=0;elbow=vertical;exitX=1;exitY=0.5;exitDx=0;exitDy=0;entryX=0;entryY=0.5;entryDx=0;entryDy=0;" edge="1" parent="1" source="K3xgULdWqoKA-jHC08mt-72" target="K3xgULdWqoKA-jHC08mt-81">
          <mxGeometry width="80" relative="1" as="geometry">
            <mxPoint x="380" y="290" as="sourcePoint" />
            <mxPoint x="460" y="290" as="targetPoint" />
          </mxGeometry>
        </mxCell>
      </root>
    </mxGraphModel>
  </diagram>
</mxfile>
